<svg xmlns="http://www.w3.org/2000/svg" viewBox="0 0 32 32" shape-rendering="crispEdges">
  <!-- Maya Creative Co — checkerboard mark -->
  <!-- Forest green: #1B3A2F / Cream: #F5F0E4 -->
  <rect x="0"  y="0"  width="8" height="8" fill="#1B3A2F"/>
  <rect x="8"  y="0"  width="8" height="8" fill="#F5F0E4"/>
  <rect x="16" y="0"  width="8" height="8" fill="#1B3A2F"/>
  <rect x="24" y="0"  width="8" height="8" fill="#F5F0E4"/>
  <rect x="0"  y="8"  width="8" height="8" fill="#F5F0E4"/>
  <rect x="8"  y="8"  width="8" height="8" fill="#1B3A2F"/>
  <rect x="16" y="8"  width="8" height="8" fill="#F5F0E4"/>
  <rect x="24" y="8"  width="8" height="8" fill="#1B3A2F"/>
  <rect x="0"  y="16" width="8" height="8" fill="#1B3A2F"/>
  <rect x="8"  y="16" width="8" height="8" fill="#F5F0E4"/>
  <rect x="16" y="16" width="8" height="8" fill="#1B3A2F"/>
  <rect x="24" y="16" width="8" height="8" fill="#F5F0E4"/>
  <rect x="0"  y="24" width="8" height="8" fill="#F5F0E4"/>
  <rect x="8"  y="24" width="8" height="8" fill="#1B3A2F"/>
  <rect x="16" y="24" width="8" height="8" fill="#F5F0E4"/>
  <rect x="24" y="24" width="8" height="8" fill="#1B3A2F"/>
</svg>
